# Blender v2.81 (sub 16) OBJ File: ''
# www.blender.org
mtllib basic3.mtl
o Sphere_Sphere.002
v 0.000000 -0.000000 -1.000000
v 0.000000 -0.707107 -0.707107
v 0.707107 0.707107 0.000000
v 1.000000 -0.000000 0.000000
v 0.707107 -0.707107 0.000000
v -0.000000 1.000000 0.000000
v -0.000000 0.707107 0.707107
v -0.000000 -0.000000 1.000000
v -0.000000 -0.707107 0.707107
v 0.000000 -1.000000 0.000000
v -0.707107 0.707106 -0.000000
v -1.000000 -0.000000 -0.000000
v -0.707107 -0.707107 -0.000000
v 0.000000 0.707106 -0.707107
vt 0.750000 0.500000
vt 0.500000 0.250000
vt 0.750000 0.250000
vt 0.750000 0.750000
vt 0.625000 1.000000
vt 0.500000 0.750000
vt 0.625000 0.000000
vt 0.500000 0.500000
vt 0.250000 0.250000
vt 0.375000 1.000000
vt 0.250000 0.750000
vt 0.375000 0.000000
vt 0.250000 0.500000
vt 0.000000 0.250000
vt 0.125000 1.000000
vt 0.000000 0.750000
vt 0.125000 0.000000
vt 0.000000 0.500000
vt 1.000000 0.500000
vt 1.000000 0.250000
vt 1.000000 0.750000
vt 0.875000 1.000000
vt 0.875000 0.000000
vn 0.0000 0.0000 -1.0000
vn 0.7778 -0.6285 0.0000
vn 0.0000 -0.6285 -0.7778
vn 0.0000 0.6285 -0.7778
vn 0.0000 1.0000 0.0000
vn 0.7778 0.6285 0.0000
vn 0.0000 -1.0000 0.0000
vn 1.0000 0.0000 0.0000
vn 0.0000 -0.6285 0.7778
vn 0.0000 0.6285 0.7778
vn 0.0000 0.0000 1.0000
vn -0.7778 -0.6285 0.0000
vn -0.7778 0.6285 0.0000
vn -1.0000 0.0000 0.0000
usemtl None
s 1
f 1/1/1 5/2/2 2/3/3
f 14/4/4 6/5/5 3/6/6
f 10/7/7 2/3/3 5/2/2
f 14/4/4 4/8/8 1/1/1
f 4/8/8 9/9/9 5/2/2
f 3/6/6 6/10/5 7/11/10
f 10/12/7 5/2/2 9/9/9
f 3/6/6 8/13/11 4/8/8
f 8/13/11 13/14/12 9/9/9
f 7/11/10 6/15/5 11/16/13
f 10/17/7 9/9/9 13/14/12
f 7/11/10 12/18/14 8/13/11
f 12/19/14 2/3/3 13/20/12
f 11/21/13 6/22/5 14/4/4
f 10/23/7 13/20/12 2/3/3
f 12/19/14 14/4/4 1/1/1
f 1/1/1 4/8/8 5/2/2
f 14/4/4 3/6/6 4/8/8
f 4/8/8 8/13/11 9/9/9
f 3/6/6 7/11/10 8/13/11
f 8/13/11 12/18/14 13/14/12
f 7/11/10 11/16/13 12/18/14
f 12/19/14 1/1/1 2/3/3
f 12/19/14 11/21/13 14/4/4
